
<svg width="187" height="60" viewBox="0 0 187 60" fill="none" xmlns="http://www.w3.org/2000/svg">
  <path d="M63.5 17H50V44H63.5V38.5H56V33.5H62.5V28H56V22.5H63.5V17Z" fill="#0063AF"/>
  <path d="M80 17H66.5V44H72V35H80C83.5 35 86.5 31 86.5 26C86.5 21 83.5 17 80 17ZM79 29.5H72V22.5H79C80.4 22.5 81.5 24 81.5 26C81.5 28 80.4 29.5 79 29.5Z" fill="#0063AF"/>
  <path d="M103 17H97.5V44H103V17Z" fill="#0063AF"/>
  <path d="M123 17H117.5V34L107 17H101.5V44H107V27L117.5 44H123V17Z" fill="#0063AF"/>
  <path d="M139 22.5H145.5V44H151V22.5H157.5V17H139V22.5Z" fill="#0063AF"/>
  <path d="M177 17H160V44H165.5V34H177V28.5H165.5V22.5H177V17Z" fill="#0063AF"/>
  <path d="M28.5 17L20.5 33L12.5 17H0L17.5 50H23.5L41 17H28.5Z" fill="#94C11F"/>
</svg>
